<?xml version="1.0" encoding="UTF-8" standalone="no"?>
<svg
   xmlns:dc="http://purl.org/dc/elements/1.1/"
   xmlns:cc="http://creativecommons.org/ns#"
   xmlns:rdf="http://www.w3.org/1999/02/22-rdf-syntax-ns#"
   xmlns:svg="http://www.w3.org/2000/svg"
   xmlns="http://www.w3.org/2000/svg"
   id="svg8"
   version="1.1"
   viewBox="0 0 16 15.999997"
   height="15.999997mm"
   width="16mm">
  <defs
     id="defs2" />
  <metadata
     id="metadata5">
    <rdf:RDF>
      <cc:Work
         rdf:about="">
        <dc:format>image/svg+xml</dc:format>
        <dc:type
           rdf:resource="http://purl.org/dc/dcmitype/StillImage" />
        <dc:title></dc:title>
      </cc:Work>
    </rdf:RDF>
  </metadata>
  <g
     transform="translate(-77.010675,-186.14923)"
     id="layer1">
    <path
       id="path85"
       d="m 80.689068,200.27574 -1.772393,-1.80593 v -3.30459 c 0,-4.57768 0.623043,-6.39485 2.716481,-7.92291 1.503375,-1.09734 1.949652,-1.217 3.759714,-1.00816 4.185405,0.48293 5.308885,2.04851 5.628178,7.84296 0.256076,4.64735 0.08787,5.06004 -2.95096,7.23718 l -1.165381,0.83494 0.175312,-2.03435 c 0.09642,-1.1189 0.194404,-2.55963 0.217738,-3.20163 0.02954,-0.81273 0.362229,-1.31297 1.095363,-1.64701 0.763283,-0.34777 1.052939,-0.80873 1.052939,-1.67567 0,-1.30453 -0.743847,-1.53278 -2.642581,-0.81089 -0.838212,0.31869 -0.979751,0.60966 -0.8214,1.68856 0.105229,0.71694 -0.04513,1.58843 -0.33411,1.93662 -0.80377,0.96849 -1.677189,-0.0245 -1.677189,-1.90678 0,-1.62014 -0.579149,-2.08166 -2.632346,-2.09768 -1.228933,-0.01 -0.97692,2.27681 0.315881,2.86584 0.844018,0.38457 1.057754,0.79493 1.077205,2.06819 0.01335,0.87364 0.09906,2.29917 0.190453,3.16785 0.0914,0.86867 0.02518,1.5794 -0.147163,1.5794 -0.17234,0 -1.110925,-0.81266 -2.085741,-1.80594 z"
       style="fill:#ffffff;stroke-width:0.42117536;fill-opacity:1" />
  </g>
</svg>
