<?xml version="1.0" encoding="UTF-8" standalone="no"?>
<svg
   xmlns:dc="http://purl.org/dc/elements/1.1/"
   xmlns:cc="http://creativecommons.org/ns#"
   xmlns:rdf="http://www.w3.org/1999/02/22-rdf-syntax-ns#"
   xmlns:svg="http://www.w3.org/2000/svg"
   xmlns="http://www.w3.org/2000/svg"
   id="svg8"
   version="1.1"
   viewBox="0 0 16 16"
   height="16mm"
   width="16mm">
  <defs
     id="defs2" />
  <metadata
     id="metadata5">
    <rdf:RDF>
      <cc:Work
         rdf:about="">
        <dc:format>image/svg+xml</dc:format>
        <dc:type
           rdf:resource="http://purl.org/dc/dcmitype/StillImage" />
        <dc:title></dc:title>
      </cc:Work>
    </rdf:RDF>
  </metadata>
  <g
     transform="translate(-61.682993,-151.57944)"
     id="layer1">
    <path
       id="path124"
       d="m 64.955559,167.46708 c -0.03655,-0.064 -0.174675,-0.4481 -0.306973,-0.85363 -0.294251,-0.90201 -0.654709,-1.24677 -1.637274,-1.56596 -0.41601,-0.13515 -0.797326,-0.31197 -0.847365,-0.39294 -0.139887,-0.22633 0.230092,-0.49471 1.04528,-0.75823 0.85978,-0.27794 1.104361,-0.5153 1.350489,-1.31063 0.208435,-0.67351 0.531395,-1.22737 0.715701,-1.22737 0.07111,0 0.268211,0.41745 0.437998,0.92766 0.365165,1.09732 0.487701,1.21728 1.646054,1.61158 1.194622,0.40664 1.209795,0.73755 0.05263,1.14791 -1.039144,0.3685 -1.329859,0.65695 -1.669392,1.65634 -0.244479,0.71961 -0.610148,1.07511 -0.787151,0.76527 z m 9.562633,-3.47351 c -0.233959,-0.72872 -0.467693,-0.96837 -1.227383,-1.2585 -0.353495,-0.135 -0.642716,-0.33837 -0.642716,-0.45193 0,-0.11356 0.349271,-0.36094 0.77616,-0.54973 0.679448,-0.30048 0.807743,-0.42595 1.029612,-1.00691 0.4068,-1.06519 0.557002,-1.08156 0.979745,-0.1068 0.34758,0.80146 0.414311,0.86748 1.11034,1.09867 0.93102,0.30923 0.917402,0.59651 -0.05018,1.05851 -0.589509,0.28147 -0.75127,0.45025 -1.003338,1.04687 -0.372749,0.88227 -0.723809,0.94359 -0.972238,0.16982 z m -5.051705,-0.27918 c -0.09006,-0.14427 -0.531915,-1.17201 -0.98191,-2.28387 -0.942665,-2.32916 -0.82854,-2.22689 -3.309012,-2.96519 -1.199579,-0.35704 -1.480065,-0.49224 -1.480065,-0.71339 0,-0.15008 0.113711,-0.30543 0.252694,-0.34524 2.285794,-0.65469 3.33405,-1.03289 3.589645,-1.29512 0.167541,-0.17189 0.64119,-1.15725 1.05255,-2.18968 0.41136,-1.03244 0.845408,-2.0068 0.964551,-2.16525 0.281108,-0.37385 0.286069,-0.36554 1.292976,2.16525 0.442365,1.11185 0.922224,2.12241 1.06636,2.24567 0.144131,0.12327 1.001745,0.44256 1.905804,0.70953 1.540995,0.45506 2.095074,0.75272 1.922103,1.03259 -0.04036,0.0653 -0.912876,0.38261 -1.938918,0.7051 -1.026042,0.32249 -1.915566,0.6656 -1.976722,0.76246 -0.06115,0.0969 -0.505968,1.14658 -0.988475,2.33269 -0.482503,1.18612 -0.951654,2.18137 -1.042558,2.21168 -0.0909,0.0303 -0.238966,-0.063 -0.329023,-0.20723 z"
       style="fill:#ffffff;stroke-width:0.14439668;fill-opacity:1" />
  </g>
</svg>
