<?xml version="1.0" encoding="UTF-8" standalone="no"?>
<svg
   xmlns:dc="http://purl.org/dc/elements/1.1/"
   xmlns:cc="http://creativecommons.org/ns#"
   xmlns:rdf="http://www.w3.org/1999/02/22-rdf-syntax-ns#"
   xmlns:svg="http://www.w3.org/2000/svg"
   xmlns="http://www.w3.org/2000/svg"
   id="svg8"
   version="1.1"
   viewBox="0 0 16 16"
   height="16mm"
   width="16mm">
  <defs
     id="defs2" />
  <metadata
     id="metadata5">
    <rdf:RDF>
      <cc:Work
         rdf:about="">
        <dc:format>image/svg+xml</dc:format>
        <dc:type
           rdf:resource="http://purl.org/dc/dcmitype/StillImage" />
        <dc:title></dc:title>
      </cc:Work>
    </rdf:RDF>
  </metadata>
  <g
     transform="translate(-65.222846,-147.44623)"
     id="layer1">
    <path
       id="path137"
       d="m 66.968353,161.68694 c 0,-0.49268 0.84331,-1.92491 1.874024,-3.18276 l 1.874026,-2.287 -1.738058,-1.29664 c -0.955931,-0.71315 -1.921614,-1.33062 -2.14596,-1.37214 -0.224345,-0.0415 -0.538882,-0.10607 -0.698971,-0.14353 -0.160088,-0.0373 -0.0051,-0.60226 0.344334,-1.25525 0.535915,-1.00136 0.458942,-1.33016 -0.491588,-2.09984 -0.77957,-0.63127 -0.952783,-1.0868 -0.561882,-1.47769 0.390901,-0.39091 0.887509,-0.24273 1.610927,0.48069 0.809419,0.80943 1.280787,0.92007 2.085334,0.48948 1.376542,-0.73669 1.798921,-0.70183 1.496137,0.12349 -0.137178,0.37392 0.378664,1.35389 1.146301,2.17771 l 1.395704,1.49786 1.486692,-1.42434 c 0.81768,-0.78338 1.356599,-1.76335 1.1976,-2.17771 -0.343955,-0.89633 0.07217,-0.95164 1.482181,-0.19702 0.804547,0.43059 1.275914,0.31994 2.085334,-0.48948 0.723418,-0.72342 1.220026,-0.87161 1.610927,-0.4807 0.390901,0.39089 0.217688,0.84643 -0.561882,1.4777 -0.95053,0.76968 -1.027503,1.09847 -0.491588,2.09984 0.349471,0.65299 0.504422,1.21786 0.344334,1.25524 -0.160089,0.0373 -0.474626,0.10191 -0.698972,0.14353 -0.224347,0.0415 -1.190028,0.65899 -2.145959,1.37214 l -1.738058,1.29664 1.874024,2.287 c 3.326425,4.05947 2.134668,5.40392 -1.995033,2.25067 l -2.393871,-1.82786 -2.381023,1.82786 c -2.614057,2.00673 -3.865034,2.30842 -3.865034,0.93209 z"
       style="fill:#ffffff;stroke-width:0.54386902;fill-opacity:1" />
  </g>
</svg>
